<svg width="144" height="15" fill="none" xmlns="http://www.w3.org/2000/svg"><path d="m8.41 10.56-.15.84a9 9 0 0 1-3.28.64 5.35 5.35 0 0 1-3.4-1.1A4 4 0 0 1 0 7.64c0-1.3.44-2.38 1.3-3.27A4.75 4.75 0 0 1 4.87 3c1.33 0 2.5.35 3.52 1.05l-.33.84c-.4-.58-.87-.98-1.4-1.21a4.01 4.01 0 0 0-1.57-.27c-1.23 0-2.2.46-2.93 1.37-.64.8-.96 1.75-.96 2.86a3.9 3.9 0 0 0 1.16 2.96c.77.74 1.76 1.1 2.96 1.1.5 0 1.03-.1 1.62-.32a5.16 5.16 0 0 0 1.48-.8m9.6 1.35h-1.04l-.02-1.7.02-2.55h-5.01v4.25h-1.04v-8.8h1.04V7.3h5V3.13h1.05m10.48 8.79h-1.2c-.34-.87-.76-1.9-1.27-3.09H22.3l-1.36 3.09h-.42l3.94-8.96h.12c.06.19.18.5.35.93 1.06 2.46 2.25 5.14 3.57 8.03m-2.64-3.48-1.67-3.92v-.17l-1.74 4.09m14.7 3.48h-1.23a140.8 140.8 0 0 1-2.5-3.99h-1l.12-.1c.83 0 1.5-.24 2-.7.47-.43.71-.97.71-1.62 0-.61-.24-1.1-.72-1.48-.56-.44-1.35-.63-2.38-.57l-.06.08v8.38h-1.06V3.08h2.06c1.02 0 1.82.25 2.4.73.5.44.75.97.75 1.6 0 1.23-.6 2.03-1.8 2.38.46.78 1.36 2.15 2.71 4.13m8.14-.44-.16.44h-5.45V3.08h1.07v8.47c2.6.01 4.1-.01 4.54-.07m8.07 0-.17.44h-5.4V3.08h4.73l.17.43c-.41-.05-1.7-.07-3.85-.06v3.82c1.67 0 2.76-.02 3.25-.08v.5c-.75-.07-1.83-.09-3.25-.06v3.92c2.58.01 4.09-.01 4.52-.07Zm7.9-1.99c0 .77-.29 1.38-.85 1.84-.57.47-1.24.7-2.02.7-1.06 0-1.97-.3-2.73-.92l.32-.85a2.5 2.5 0 0 0 2.37 1.36c.59 0 1.07-.15 1.45-.46.39-.3.58-.7.58-1.2 0-.69-.38-1.26-1.14-1.7-.7-.36-1.41-.73-2.13-1.08a2.3 2.3 0 0 1-1.13-2c0-.68.27-1.23.83-1.64A2.9 2.9 0 0 1 58.56 3c.9 0 1.61.22 2.11.65l-.35.72c-.38-.65-.98-.98-1.8-.98-.49 0-.89.11-1.2.33-.37.26-.55.6-.55 1.06 0 .7.38 1.25 1.16 1.68.71.36 1.43.71 2.16 1.06.77.5 1.15 1.15 1.15 1.98m29.94 1.07-.15.84a9 9 0 0 1-3.29.64 5.35 5.35 0 0 1-3.4-1.1 4 4 0 0 1-1.57-3.3c0-1.3.43-2.38 1.3-3.27A4.75 4.75 0 0 1 87.63 3c1.33 0 2.5.35 3.51 1.05l-.33.84a3.4 3.4 0 0 0-1.4-1.21 4 4 0 0 0-1.57-.27c-1.23 0-2.2.46-2.93 1.37-.64.8-.96 1.75-.96 2.86a3.9 3.9 0 0 0 1.16 2.96c.77.74 1.76 1.1 2.97 1.1.49 0 1.03-.1 1.61-.32a5.15 5.15 0 0 0 1.49-.8Zm11.3-3c0 1.38-.47 2.48-1.42 3.3a5.16 5.16 0 0 1-3.52 1.18 5.4 5.4 0 0 1-3.55-1.13 4.01 4.01 0 0 1-1.46-3.28c0-1.28.46-2.37 1.4-3.28A4.94 4.94 0 0 1 97.53 3c1.45 0 2.66.45 3.6 1.35.9.86 1.35 1.94 1.35 3.22Zm-1.19 0c0-1.12-.3-2.06-.9-2.84a3.44 3.44 0 0 0-2.87-1.32c-1.23 0-2.19.46-2.88 1.37-.62.8-.92 1.75-.92 2.86 0 1.16.36 2.12 1.09 2.89a3.59 3.59 0 0 0 2.71 1.14 3.44 3.44 0 0 0 2.7-1.17 4.2 4.2 0 0 0 1.07-2.93Zm8.77 3.92-.16.44h-5.45V3.08h1.07v8.47c2.6.01 4.1-.01 4.55-.07m7.27-8.4-3.94 8.96h-.12l-.37-.93-3.48-8.03h1.14c.56 1.47 1.6 3.94 3.12 7.4l.01.18 3.26-7.58m8.2 8.84h-1.22c-.33-.87-.75-1.9-1.25-3.09h-3.74l-1.36 3.09h-.42l3.94-8.96h.12l.35.93c1.06 2.46 2.25 5.14 3.57 8.03m-2.64-3.48-1.67-3.92v-.17l-1.74 4.09m14.03 3.48h-1.23c-.85-1.32-1.69-2.65-2.5-3.99h-1l.11-.1c.83 0 1.5-.24 2-.7.48-.43.72-.97.72-1.62 0-.61-.24-1.1-.72-1.48-.57-.44-1.36-.63-2.38-.57l-.07.08v8.38h-1.05V3.08h2.06c1.02 0 1.81.25 2.4.73.5.44.75.97.75 1.6 0 1.23-.6 2.03-1.8 2.38.45.78 1.35 2.15 2.7 4.13m10.74-4.6c0 1.63-.56 2.84-1.69 3.64-.7.49-1.54.79-2.5.9-.41.04-1.41.06-3 .06h-1.1V3.08h2.33c.95 0 1.63.03 2.04.08.88.12 1.7.47 2.43 1.06 1 .8 1.5 1.83 1.5 3.1m-1.08.4c.03-.92-.25-1.79-.85-2.58-.6-.8-1.4-1.29-2.37-1.49-.42-.1-1.4-.14-2.93-.14v7.89c.18.07.65.1 1.42.1 1 0 1.71-.08 2.15-.24a3.68 3.68 0 0 0 2.58-3.53M69.9 6.92l-.67-.65c-.9-.85-1.73-2.02-1.73-3.19C67.5 1.8 68.6 0 71.16 0c2.35 0 3.44 1.54 3.44 3.08 0 1.6-1.78 2.94-4 3.9h-.02l5.37 4.98a7.92 7.92 0 0 0 1.77-4.8c0-.18-.02-.41-.04-.64 0-.08.07-.17.15-.17h.1c.08 0 .15.07.15.13.02.23.04.46.04.69 0 1.68-.69 3.54-1.88 5.02l2.48 2.3c.07.07.09.11.02.18l-.15.12c-.07.06-.11.02-.16-.02l-2.46-2.27a7.08 7.08 0 0 1-5.4 2.5c-2.51 0-4.13-1.75-4.13-3.81 0-2.13 1.53-3.38 3.46-4.27m.66 7.7a6.8 6.8 0 0 0 5.15-2.37l-5.52-5.1c-1.87.87-3.38 2.04-3.38 4.04 0 1.87 1.47 3.43 3.75 3.43m3.66-11.54c0-1.35-.98-2.7-3.06-2.7-2.33 0-3.28 1.56-3.28 2.7 0 1.05.84 2.13 1.62 2.9.26.25.5.5.8.75 2.21-.96 3.92-2.15 3.92-3.65" fill="#000"/></svg>