<svg width="50" height="50" viewBox="0 0 50 50" fill="none" xmlns="http://www.w3.org/2000/svg">
<path d="M33 26.07L36.9 30C36.9994 30.1004 37.1178 30.1801 37.2483 30.2345C37.3787 30.2889 37.5186 30.3169 37.66 30.3169C37.8013 30.3169 37.9412 30.2889 38.0716 30.2345C38.2021 30.1801 38.3205 30.1004 38.42 30L41.18 27.24V13C41.1813 12.7874 41.1193 12.5792 41.0018 12.402C40.8843 12.2248 40.7167 12.0866 40.5204 12.005C40.324 11.9235 40.1078 11.9023 39.8993 11.9442C39.6909 11.986 39.4996 12.089 39.35 12.24L28.47 23.15C28.3705 23.2504 28.2521 23.3301 28.1216 23.3845C27.9912 23.4389 27.8513 23.4669 27.71 23.4669C27.5686 23.4669 27.4287 23.4389 27.2983 23.3845C27.1678 23.3301 27.0494 23.2504 26.95 23.15L20.62 16.82C20.5205 16.7197 20.4021 16.64 20.2716 16.5856C20.1412 16.5312 20.0013 16.5032 19.86 16.5032C19.7186 16.5032 19.5787 16.5312 19.4483 16.5856C19.3178 16.64 19.1994 16.7197 19.1 16.82L3.35995 32.69C3.21236 32.8402 3.11236 33.0306 3.07247 33.2374C3.03259 33.4441 3.05459 33.6581 3.13573 33.8524C3.21687 34.0467 3.35353 34.2127 3.52861 34.3297C3.70369 34.4467 3.90939 34.5094 4.11995 34.51H23.12L31.49 26.07C31.6905 25.8704 31.962 25.7583 32.245 25.7583C32.528 25.7583 32.7994 25.8704 33 26.07Z" fill="#6F00FF"/>
<path d="M45.12 23.26L41.18 27.21V33.43C41.18 33.7138 41.0672 33.9859 40.8666 34.1866C40.6659 34.3873 40.3938 34.5 40.11 34.5H23.11L21.42 36.21C21.269 36.3597 21.1659 36.5509 21.1241 36.7594C21.0822 36.9678 21.1034 37.184 21.185 37.3804C21.2665 37.5768 21.4047 37.7444 21.5819 37.8619C21.7592 37.9793 21.9674 38.0413 22.18 38.04H45.88C46.0222 38.0467 46.1642 38.025 46.2979 37.9761C46.4316 37.9272 46.5541 37.8521 46.6584 37.7553C46.7627 37.6584 46.8467 37.5417 46.9053 37.412C46.964 37.2824 46.9961 37.1423 47 37V24C47.0087 23.7782 46.9481 23.5591 46.8268 23.3733C46.7054 23.1874 46.5293 23.0438 46.3227 22.9625C46.1161 22.8812 45.8894 22.8662 45.6739 22.9195C45.4584 22.9728 45.2648 23.0918 45.12 23.26Z" fill="#D15187"/>
<path d="M41.18 33.43V27.21L38.42 30C38.3205 30.1004 38.2021 30.18 38.0717 30.2344C37.9412 30.2888 37.8013 30.3168 37.66 30.3168C37.5187 30.3168 37.3787 30.2888 37.2483 30.2344C37.1178 30.18 36.9995 30.1004 36.9 30L33 26.07C32.9005 25.9696 32.7821 25.8899 32.6517 25.8355C32.5212 25.7812 32.3813 25.7532 32.24 25.7532C32.0987 25.7532 31.9587 25.7812 31.8283 25.8355C31.6978 25.8899 31.5795 25.9696 31.48 26.07L23.11 34.51H40.11C40.2513 34.51 40.3913 34.482 40.5218 34.4276C40.6523 34.3732 40.7707 34.2935 40.8701 34.1931C40.9696 34.0926 41.0482 33.9735 41.1014 33.8425C41.1546 33.7116 41.1813 33.5713 41.18 33.43Z" fill="#A445BB"/>
</svg>
