<svg width="50" height="50" viewBox="0 0 50 50" fill="none" xmlns="http://www.w3.org/2000/svg">
<g style="mix-blend-mode:multiply">
<path d="M32.85 24.63C31.977 25.9067 30.8057 26.9511 29.4378 27.6729C28.0699 28.3946 26.5466 28.7718 25 28.7718C23.4534 28.7718 21.9301 28.3946 20.5622 27.6729C19.1943 26.9511 18.0231 25.9067 17.15 24.63C15.3655 25.8835 13.9094 27.5486 12.905 29.4843C11.9006 31.42 11.3775 33.5692 11.38 35.75V46.88H38.62V35.75C38.6225 33.5692 38.0994 31.42 37.095 29.4843C36.0906 27.5486 34.6345 25.8835 32.85 24.63Z" fill="#6F00FF"/>
</g>
<g style="mix-blend-mode:multiply">
<path d="M32.85 24.63C33.827 23.2013 34.3956 21.5331 34.4945 19.8051C34.5933 18.0771 34.2187 16.3548 33.411 14.824C32.6034 13.2932 31.3932 12.0118 29.911 11.118C28.4288 10.2242 26.7308 9.75183 25 9.75183C23.2692 9.75183 21.5711 10.2242 20.089 11.118C18.6068 12.0118 17.3966 13.2932 16.5889 14.824C15.7813 16.3548 15.4067 18.0771 15.5055 19.8051C15.6044 21.5331 16.173 23.2013 17.15 24.63C19.4442 23.003 22.1874 22.129 25 22.129C27.8126 22.129 30.5557 23.003 32.85 24.63Z" fill="#D15187"/>
</g>
<path d="M25 28.77C26.5465 28.7702 28.0697 28.3933 29.4376 27.6719C30.8055 26.9505 31.9768 25.9064 32.85 24.63C30.5558 23.003 27.8126 22.129 25 22.129C22.1874 22.129 19.4443 23.003 17.15 24.63C18.0233 25.9064 19.1946 26.9505 20.5625 27.6719C21.9304 28.3933 23.4536 28.7702 25 28.77Z" fill="#A445BB"/>
<path d="M7.75 18.79L11.84 19.25L7.75 19.72V18.79Z" fill="#6F2CFF"/>
<path d="M25.46 2.01001L25 6.09001L24.54 2.01001H25.46Z" fill="#6F2CFF"/>
<path d="M42.25 19.72L38.16 19.25L42.25 18.79V19.72Z" fill="#6F2CFF"/>
</svg>
