<svg width="50" height="50" viewBox="0 0 50 50" fill="none" xmlns="http://www.w3.org/2000/svg">
<path d="M14.06 22.67C14.0586 24.2188 14.4399 25.744 15.17 27.11C18.1529 26.9737 20.9686 25.6933 23.0321 23.5349C25.0955 21.3765 26.248 18.506 26.25 15.52C26.2466 14.8494 26.1863 14.1804 26.07 13.52C24.6623 13.1276 23.1828 13.0667 21.7476 13.342C20.3124 13.6174 18.9605 14.2215 17.7979 15.107C16.6354 15.9924 15.6938 17.1352 15.047 18.4457C14.4002 19.7561 14.0658 21.1986 14.07 22.66L14.06 22.67Z" fill="#A445BB"/>
<path d="M23.55 9.00005H24.22C23.1963 7.50694 21.8373 6.27416 20.2518 5.40034C18.6663 4.52653 16.8983 4.03593 15.0892 3.96781C13.2802 3.89969 11.4803 4.25593 9.83354 5.00804C8.18681 5.76015 6.73898 6.88723 5.60588 8.29913C4.47278 9.71102 3.68586 11.3685 3.3081 13.139C2.93033 14.9095 2.9722 16.7439 3.43035 18.4953C3.88851 20.2467 4.75023 21.8666 5.94657 23.2253C7.14291 24.584 8.64066 25.6439 10.32 26.32C9.99846 25.1401 9.83371 23.923 9.82999 22.7C9.84056 19.0664 11.2901 15.5848 13.8614 13.0173C16.4327 10.4498 19.9163 9.00532 23.55 9.00005Z" fill="#D15187"/>
<path d="M24.22 9H23.55C19.9215 9.00523 16.4423 10.4456 13.8719 13.0066C11.3015 15.5677 9.84847 19.0415 9.82999 22.67C9.83371 23.8929 9.99846 25.1101 10.32 26.29C10.9043 28.4324 12.001 30.4005 13.5155 32.0245C15.0299 33.6486 16.9168 34.8798 19.0132 35.6121C21.1096 36.3444 23.3527 36.5557 25.549 36.2278C27.7453 35.8999 29.8289 35.0427 31.62 33.73L43.62 45.73C43.8524 45.9614 44.167 46.0914 44.495 46.0914C44.823 46.0914 45.1376 45.9614 45.37 45.73L46.61 44.49C46.8414 44.2576 46.9714 43.943 46.9714 43.615C46.9714 43.287 46.8414 42.9724 46.61 42.74L34.61 30.74C36.0653 28.7445 36.9536 26.3924 37.1808 23.9331C37.408 21.4737 36.9657 18.9987 35.9007 16.7703C34.8357 14.5419 33.1877 12.6432 31.1313 11.2752C29.075 9.90725 26.6868 9.12108 24.22 9ZM23.55 32.19C21.8313 32.1935 20.144 31.7302 18.6681 30.8496C17.1922 29.969 15.9831 28.7041 15.17 27.19C14.4398 25.8241 14.0585 24.2988 14.06 22.75C14.0558 21.2886 14.3902 19.8461 15.0369 18.5357C15.6837 17.2252 16.6254 16.0825 17.7879 15.197C18.9505 14.3115 20.3024 13.7074 21.7376 13.432C23.1728 13.1567 24.6523 13.2176 26.06 13.61C28.2811 14.2118 30.2074 15.6009 31.4798 17.5183C32.7522 19.4357 33.2837 21.7504 32.9753 24.0308C32.6668 26.3112 31.5394 28.4016 29.8034 29.912C28.0673 31.4225 25.8411 32.2499 23.54 32.24L23.55 32.19Z" fill="#6F00FF"/>
</svg>
