<svg width="63" height="25" fill="none" xmlns="http://www.w3.org/2000/svg"><path d="M5.2.51H0v23.97h5.2V.51Zm4.07 23.97h5.2v-9.55h10.25v9.55h5.2V.51h-5.2v9.56H14.47V.5h-5.2v23.97ZM50.91 7.43l3.6-3.39a10.79 10.79 0 0 0-4.01-2.98 13.46 13.46 0 0 0-11.46.46c-1.86 1-3.4 2.51-4.44 4.35a13.03 13.03 0 0 0-1.63 6.63 13.3 13.3 0 0 0 1.52 6.4 11.2 11.2 0 0 0 4.34 4.45A12.6 12.6 0 0 0 45.27 25c2.12.03 4.22-.5 6.1-1.5 1.8-1 3.3-2.48 4.34-4.27a12.48 12.48 0 0 0 1.61-6.42c0-.92-.1-1.84-.27-2.74H44.72v4.86h6.93a5.03 5.03 0 0 1-1.97 3.66 7.4 7.4 0 0 1-7.93.54 6.4 6.4 0 0 1-2.44-2.62 8.49 8.49 0 0 1-.9-4.01 8.71 8.71 0 0 1 .83-3.89 6.42 6.42 0 0 1 6.03-3.64c2.06 0 3.94.82 5.64 2.46M62.5 3.42a2.43 2.43 0 0 1-1.47 2.24 2.38 2.38 0 0 1-3.28-1.75 2.44 2.44 0 0 1 1.02-2.5 2.38 2.38 0 0 1 2.25-.23 2.36 2.36 0 0 1 1.48 2.24m-.43 0a2 2 0 0 0-1.21-1.86 1.95 1.95 0 0 0-2.59 1.1 2 2 0 0 0-.13.77 2 2 0 0 0 1.2 1.85 1.95 1.95 0 0 0 2.59-1.1 2 2 0 0 0 .14-.76m-.91 1.16h-.54l-.57-.92h-.25v.92h-.52V2.2h.83c.55 0 .91.23.91.72a.63.63 0 0 1-.49.65l.63 1.01Zm-.65-1.64c0-.25-.15-.34-.4-.34h-.31v.7h.3c.27 0 .41-.12.41-.35v-.01Z" fill="#000"/></svg>