<svg width="84" height="25" fill="none" xmlns="http://www.w3.org/2000/svg"><path d="m2.75 7.83 1.14-1.2c.28-.28 1.3-1.33 1.3-1.7 0-.4-.63-.41-.9-.41v-.33l1.5.08 1.44-.08v.33c-.92.03-1.09.31-1.69.95L3.98 7.2l3.27 3.15c.44.4.56.65 1.18.75v.33l-1.04-.08-1.06.08-3.24-3.4-.34.34V9.4c0 1.1-.15 1.6 1.2 1.69v.33l-1.92-.08-1.93.08v-.33C1.38 11 1.3 10.6 1.3 9.5V2.88c0-.38 0-1.27-.2-1.59C.9.9.4.9 0 .85V.53L2.75 0v7.83Zm11.87 2.16c-.47.45-1.2.95-1.86.95-.7 0-1.09-.58-1.09-1.2 0-1.34 1.94-2 2.95-2.48v2.73ZM12.8 7.65c-1.08.48-2.7 1.08-2.7 2.49 0 .93.87 1.47 1.77 1.47 1.05 0 2.03-.55 2.83-1.19.17.67.77 1.2 1.47 1.2.63 0 1.26-.58 1.54-1.13l-.33-.17c-.18.23-.36.54-.7.54-.66 0-.6-1.24-.6-1.66V6.44c0-1.92-.87-2.4-2.75-2.4-.87 0-3.13.23-3.13 1.46 0 .37.27.6.65.6.43 0 .65-.36.68-.73.05-.89.75-.95 1.6-.95 1.38 0 1.48.8 1.48 1.93 0 .19.04.4-.13.49l-1.68.8m6.29-2.87v-.3a4.37 4.37 0 0 0 2.06-2.1h.26v1.95h1.94v.45H21.4v4.78c0 .75.15 1.54 1.06 1.54.6 0 .9-.34 1.22-.76l.31.22c-.3.8-1.16 1.07-1.98 1.07-1.23 0-2.06-.47-2.06-1.72V4.77h-.87m8.31 1.7c.2-1.1.72-2.05 2-2.05 1.06 0 1.64.67 1.64 1.72 0 .41-.56.33-.83.33h-2.8ZM32 9.85c-.5.67-1.27 1.24-2.14 1.24-1.82 0-2.67-1.77-2.67-3.36l.07-.8h4.89c.16 0 .42.06.42-.16 0-1.81-1.59-2.73-3.25-2.73a3.92 3.92 0 0 0-3.84 3.99c0 2.14 1.75 3.59 3.86 3.59 1.27 0 2.22-.45 3.03-1.42L32 9.85Zm7.81 1.65h-.17l-.06-2.39h.34c.27 1.07.85 2.13 2.11 2.13.74 0 1.42-.37 1.42-1.18 0-.95-.98-1.33-1.71-1.7-.99-.5-2.05-1.06-2.05-2.32 0-1.15.94-2 2.12-2 .53 0 1.17.15 1.64.4l.34-.38h.2l-.03 2.08h-.34c-.3-.84-.67-1.72-1.74-1.72-.56 0-1.09.32-1.09.92 0 .87.93 1.17 1.58 1.52 1.17.6 2.24 1.04 2.24 2.55 0 1.38-1.19 2.2-2.5 2.2-.64 0-1.36-.19-1.87-.59l-.43.48m9.11-4.1c0-.69 0-1.27.36-1.87.36-.61 1-.96 1.72-.96 1.86 0 2.35 1.72 2.35 3.25 0 1.5-.54 3.27-2.38 3.27-.62 0-1.28-.22-1.67-.67-.38-.44-.38-1.26-.38-1.83V7.4Zm-.2-3.36c-.8.18-1.63.4-2.48.5v.35c.54 0 1-.06 1.14.54.09.38.09 1.55.09 2.02V14c0 1.1.1 1.52-1.18 1.6v.33c.68-.02 1.37-.06 2.05-.07.63.01 1.26.05 1.9.07v-.33c-1.44-.06-1.32-.5-1.32-1.7v-3.24c.74.65 1.45.95 2.45.95 2.16 0 3.69-1.7 3.69-3.74a3.67 3.67 0 0 0-3.78-3.82c-1.11-.01-1.9.48-2.56 1.37V4.04m12.98 5.95c-.47.45-1.2.95-1.86.95-.7 0-1.09-.58-1.09-1.2 0-1.34 1.94-2 2.95-2.48v2.73Zm-1.83-2.34c-1.08.48-2.7 1.08-2.7 2.49 0 .93.86 1.47 1.77 1.47 1.05 0 2.03-.55 2.83-1.19.17.67.77 1.2 1.47 1.2.63 0 1.26-.58 1.54-1.13l-.33-.17c-.19.23-.36.54-.7.54-.66 0-.6-1.24-.6-1.66V6.44c0-1.92-.87-2.4-2.76-2.4-.86 0-3.12.23-3.12 1.46 0 .37.27.6.65.6.42 0 .65-.36.68-.73.05-.89.74-.95 1.6-.95 1.38 0 1.48.8 1.48 1.93 0 .19.04.4-.13.49l-1.68.8m12.32 1.01c0 1.33-.5 2.51-2.03 2.51-1.84 0-2.33-1.74-2.33-3.25 0-1.45.5-3.34 2.33-3.34.99 0 2.03.65 2.03 1.7v2.38Zm2.85 2.41v-.33c-.55 0-1 .03-1.23-.55-.17-.44-.17-1.28-.17-1.75V0L70.9.53v.32c1.23.04 1.28.57 1.28 1.58v2.64a3.16 3.16 0 0 0-2.44-1.03c-2.16 0-3.63 1.83-3.63 3.87 0 2.08 1.48 3.7 3.63 3.7 1.17 0 1.93-.4 2.67-1.26.05.45.15.88.34 1.27l2.28-.56m3.34-4.59c.2-1.1.72-2.05 2-2.05 1.06 0 1.64.67 1.64 1.72 0 .41-.56.33-.83.33h-2.81Zm4.6 3.38c-.52.67-1.28 1.24-2.16 1.24-1.81 0-2.67-1.77-2.67-3.36l.07-.8h4.89c.17 0 .42.06.42-.16 0-1.81-1.58-2.73-3.25-2.73a3.93 3.93 0 0 0-3.84 3.99c0 2.14 1.75 3.59 3.86 3.59 1.27 0 2.23-.45 3.03-1.42l-.36-.35M20.54 21.1c-.21-.29-.37-.38-.73-.4v-.14l.63.02.53-.02 2.83 3.38V22.1c0-.28 0-.74-.06-1-.08-.37-.26-.35-.6-.4v-.15l.74.02.71-.02v.15c-.25.03-.42 0-.5.29-.07.2-.09.88-.09 1.14v2.82h-.2l-.44-.55-2.62-3.1v2.2c0 .24 0 .73.1.96.11.25.33.24.58.27v.15l-.77-.03c-.25 0-.5.02-.74.03v-.15c.26-.03.5-.04.57-.33.06-.23.06-.64.06-.9v-2.4m6.34.71c0-.2 0-.69-.06-.87-.1-.22-.36-.22-.58-.22v-.17h3.32v.98h-.16c-.12-.76-.47-.8-1.17-.8h-.48c-.21 0-.18-.03-.18.26v1.55c.92.04 1.05-.33 1.1-.8h.15l-.03.89.03.8h-.16c-.1-.68-.45-.71-1.09-.71v1.07c0 .2 0 .5.12.66.18.23.59.24.86.24.69-.02 1.14-.1 1.23-.88h.15l-.06 1.05h-3.63v-.15c.22 0 .49 0 .58-.22.06-.18.06-.66.06-.87v-1.8m7.6-.16-.54 1.77L33.4 25h-.22L32 21.48c-.06-.16-.15-.5-.25-.61-.11-.15-.29-.16-.48-.17v-.15l.96.02.99-.02v.15c-.21.02-.6.02-.6.32 0 .15.15.64.2.8l.7 2.24 1.06-3.51h.22L35.9 24l.46-1.43c.09-.28.35-1.2.35-1.44 0-.41-.24-.41-.57-.44v-.15l.72.02.7-.02v.15c-.5-.01-.6.5-.7.86L35.76 25h-.24l-1.04-3.34m9.22 2.36c0 .62.02.65.66.7v.16l-1-.03-1.02.03v-.15c.65-.06.67-.1.67-.71v-.81l-.61-1.04c-.07-.13-.59-1.13-.82-1.35-.11-.13-.23-.1-.38-.12v-.15l.9.02.94-.02v.15c-.14 0-.5-.01-.5.2 0 .18.1.32.18.47l.87 1.57.43-.67c.14-.22.66-1.06.66-1.3s-.3-.25-.48-.27v-.15l.71.02.66-.02v.15c-.4.03-.53.28-.71.58l-1.16 1.87v.87m5.3-3.37c1.18 0 1.59 1.08 1.59 2.06 0 .97-.36 2.06-1.55 2.06-1.22 0-1.64-1.02-1.64-2.04 0-.97.44-2.08 1.6-2.08Zm.01 4.3c1.36 0 2.43-.93 2.43-2.27 0-1.3-1.12-2.2-2.4-2.2-1.3 0-2.45.95-2.45 2.25 0 1.31 1.12 2.22 2.42 2.22Zm5.25-3.97c0-.08-.02-.2.07-.24.06-.02.36 0 .44 0 .6 0 .94.4.94.98 0 .94-.6.96-1.45.96v-1.7Zm1 1.76c.67-.05 1.22-.41 1.22-1.11 0-.91-.77-1.08-1.54-1.08l-.85.02-1.15-.02v.15c.22 0 .5 0 .57.22.06.17.06.66.06.87v1.84c0 .2 0 .7-.06.87-.07.23-.35.23-.57.23v.15l1-.03c.32 0 .64.02.95.03v-.15c-.21 0-.49 0-.57-.23-.06-.18-.06-.66-.06-.87v-.77c.35 0 .33.04.55.28l1.1 1.36.32.38.5-.03.6.03v-.15c-.34-.06-.44-.15-.65-.4l-1.42-1.59m4.55.5v.78c0 .62.02.65.66.7v.16l-.98-.03-1.02.03v-.15c.22 0 .49 0 .58-.23.06-.18.06-.66.06-.87V21.8c0-.21 0-.7-.06-.87-.09-.22-.36-.22-.58-.22v-.15l.96.02 1.04-.02v.15c-.64.05-.66.09-.66.7V23c.31-.33 1.6-1.66 1.6-2.04 0-.27-.3-.24-.5-.26v-.15l.8.02.7-.02v.15c-.37 0-.46.09-.68.36l-1.07 1.3.93 1.04c.08.1.78 1 1.1 1.23.13.1.23.08.39.1v.15l-1.06-.03c-.35 0-.68.02-1.02.03v-.15c.12 0 .56.01.56-.2 0-.14-.42-.62-.53-.75l-.81-.96-.41.43" fill="#000"/></svg>