<svg width="156" height="25" fill="none" xmlns="http://www.w3.org/2000/svg"><path d="M59.22 7.46V.63c0-.48-.43-.63-.17-.63h1.48c.33 0-.13.1-.13.6v6.84c0 .74 0 .82 1.26.89.54.03 2.02.1 3.28-1.44.39-.47.27-.13.27-.13s-.2 1.4-.29 1.68c-.06.2-.12.16-.3.16h-5.56c-.3 0-.14-.08.07-.4.11-.17.09-.74.09-.74m7.59-6.34 2.97 7.4c.04.08.08.08.08.08h.66c.06 0 .1-.06.13-.08l2.56-6.75c.15-.38.65-1.28.97-1.58.24-.23-.13-.19-.13-.19h-1.66c-.1 0-.3-.07 0 .35.51.76.16 1.59.16 1.59L70.57 7.4 68.11 1c-.08-.21-.07-.57.06-.73.27-.32.18-.28-.03-.28H66.2c-.41 0 .24.15.6 1.12m11.14.16c.01.9-.57 5.47-.77 6.1a3.8 3.8 0 0 1-.5 1.08c-.1.1-.1.14.03.14h1.24c.24 0-.01-.24-.01-.24s-.22-.31-.14-.98l.7-6.11 2.75 7.27c.1.25.22.27.33 0l2.85-7.43.67 6.23c.04.46.08.8.04.93-.07.28-.3.33-.08.33h1.64c.23 0 .19-.04.1-.18-.08-.12-.3-.33-.53-1.23-.19-.75-.57-6.01-.6-6.35-.06-.8.47-.84.2-.84h-1.52s-.19.02-.26.29l-2.3 6.5L79.33 0h-1.55c-.56 0 .2.1.17 1.28M97.8.12c.1-.1.1-.12-.13-.12h-1.4c-.3 0-.14.13-.14.13s.21.25.22.62v3.23h-4v-3c0-.55.15-.71.22-.8.14-.2.07-.18-.14-.18h-1.32c-.25 0-.3.02-.13.15 0 0 .17.12.16.87v6.59c-.01.51-.04.75-.16.89-.11.13.06.1.06.1h1.42c.13 0 .05-.08.05-.08s-.15-.03-.17-.91V4.34h4.01s.03 3.1.02 3.27c0 .53 0 .75-.12.86-.08.08-.26.13.09.13h1.39c.18 0 .24 0 .1-.12-.08-.06-.21-.19-.21-.87V.81c0-.55.18-.69.18-.69M29.78 24.63a.1.1 0 0 0 .09-.09Zm.09-.09v-7.53a.09.09 0 0 0-.1-.09h-.54c-.05 0-.1.05-.1.1l.01 7.52c0 .05.04.1.09.1h.55a.1.1 0 0 0 .09-.1m5.22 0v-7.53a.1.1 0 0 0-.02-.06.09.09 0 0 0-.07-.03h-.55c-.05 0-.09.05-.09.1v7.52a.09.09 0 0 0 .06.09H35a.1.1 0 0 0 .1-.09m-31.7-3.3c-.05 0-.1 0-.13-.05L.73 18.03v6.52c0 .05 0 .09-.09.09H.1c-.05 0-.1-.03-.1-.08v-7.54c0-.05.09-.1.1-.1h.63L3.4 20.2" fill="#000"/><path d="M3.4 21.24c.06 0 .12 0 .14-.05l2.54-3.16v6.52c0 .05-.01.09.08.09h.55c.05 0 .09-.03.09-.08v-7.54c0-.05-.08-.1-.09-.1h-.64L3.4 20.2m22.79-3.19a.09.09 0 0 0-.1-.09h-5.68c-.05 0-.09.05-.09.1v.45c0 .07.04.1.1.1h5.68a.1.1 0 0 0 .09-.1v-.46" fill="#000"/><path d="M22.82 24.54c0 .05.04.1.08.1h.54a.1.1 0 0 0 .1-.1v-6.87c0-.06.06-.1.08-.1l-.9-.01c.05 0 .09.06.09.11v6.86m-2.86-7.6c.05 0 .09.03.09.08v.46a.09.09 0 0 1-.06.08.1.1 0 0 1-.04 0l-3.1.01a.1.1 0 0 0-.1.1v6.24c0 .05.04.09.09.09h3.12c.05 0 .1.04.1.1v.46a.09.09 0 0 1-.04.06.1.1 0 0 1-.06.03H16.1c-.05 0-.1-.04-.1-.1v-7.52c0-.05.05-.1.1-.1h3.84" fill="#000"/><path d="M16.65 20.42v.63h3.3a.1.1 0 0 0 .1-.1v-.44a.1.1 0 0 0-.1-.1h-3.3m23.48-3.48c.05 0 .1.03.1.08v.46c0 .05-.05.09-.1.09h-3.11c-.05 0-.1.04-.1.1v6.24a.09.09 0 0 0 .06.08L37 24h3.13c.05 0 .09.04.09.1v.46a.1.1 0 0 1-.1.09H36.3c-.05 0-.1-.04-.1-.1v-7.52c0-.05.04-.1.1-.1h3.83" fill="#000"/><path d="M36.83 20.42v.63h3.3a.1.1 0 0 0 .1-.1v-.44a.1.1 0 0 0-.1-.1h-3.3m23.95-3.48c.05 0 .09.03.09.08v.46a.1.1 0 0 1-.1.09h-3.1a.1.1 0 0 0-.1.1v6.24a.09.09 0 0 0 .09.09h3.12c.05 0 .1.04.1.1l-.01.46a.1.1 0 0 1-.1.09h-3.83c-.05 0-.1-.04-.1-.1v-7.52c0-.05.05-.1.1-.1h3.84" fill="#000"/><path d="M57.48 20.42v.63h3.3a.1.1 0 0 0 .1-.1l-.01-.44a.1.1 0 0 0-.1-.1h-3.3M17.3 16.58a.47.47 0 1 0 0-.94.47.47 0 0 0 0 .94m1.52 0a.47.47 0 1 0 0-.94.47.47 0 0 0 0 .94m10.97 3.85h4.69v.63h-4.69v-.63m42.85 4.21a.09.09 0 0 1-.09-.09v-4.12h.73v4.12a.1.1 0 0 1-.09.1h-.55" fill="#000"/><path d="m73.12 20.31-2.5-3.2h-.92l2.85 3.65.57-.45M42 18.13v6.42c0 .05-.04.08-.1.08h-.54a.09.09 0 0 1-.09-.09v-7.52c0-.05.04-.09.08-.1H42l5.14 6.62v-6.52c0-.05.02-.1.08-.1h.57c.05 0 .06.06.06.1v7.5c0 .06-.05.11-.1.11h-.53c-.04 0-.16-.02-.16-.06L42 18.13m7.62 0v6.42c0 .05-.04.08-.1.08h-.54a.09.09 0 0 1-.09-.09v-7.52c0-.05.04-.09.09-.1h.64l5.14 6.62v-6.52c0-.05.02-.1.09-.1h.56c.05 0 .06.06.06.1v7.5c0 .06-.05.11-.1.11h-.53c-.04 0-.16-.02-.16-.06l-5.06-6.44M63.29 24.87c-.63.01-1.33-.21-1.97-.74l.46-.55c1.05.86 2.06.65 2.6.13.26-.25.41-.6.39-.94-.03-.36-.23-.75-.74-1.14l-1.78-1.25h-.03a1.96 1.96 0 0 1-.8-1.52c0-.54.25-1.03.64-1.39.78-.71 2.17-.88 3.31.16l-.5.53c-.92-.83-1.8-.63-2.32-.16a1.2 1.2 0 0 0-.42.86c0 .3.15.63.56.95l1.78 1.25c.63.48.97 1.08 1.02 1.66.04.58-.2 1.14-.6 1.53-.41.39-.97.61-1.6.62Zm4.42 0c-.63.01-1.33-.21-1.97-.74l.46-.55c1.05.86 2.06.65 2.6.13.26-.25.41-.6.39-.94-.03-.36-.24-.75-.74-1.14l-1.79-1.25h-.02a1.96 1.96 0 0 1-.8-1.52c0-.54.25-1.03.64-1.39.78-.71 2.17-.88 3.3.16l-.48.53c-.9-.83-1.82-.63-2.33-.16-.26.24-.4.55-.4.86 0 .3.13.63.53.95l1.78 1.25h.03c.63.48.95 1.08 1 1.66.04.58-.2 1.14-.6 1.53-.41.39-.97.61-1.6.62Z" fill="#000"/><path d="m72.7 20.31 2.51-3.2h.92l-2.85 3.65-.57-.45m5.53 3.13a.1.1 0 0 0-.09.09c0 .05.04.09.1.09v-.18Zm2.19.18a.1.1 0 0 0 .06-.16.1.1 0 0 0-.06-.02v.18Zm-1.19 1.29c0 .05.04.09.1.09a.1.1 0 0 0 .08-.1h-.18Zm.18-2.66a.1.1 0 1 0-.18 0h.18Z" fill="#000"/><path d="m78.17 23.47 1.1-1.28h.13l1.1 1.28v.1l-1.1 1.4h-.13l-1.1-1.4v-.1Zm6.95-6.45a.1.1 0 0 0-.09-.1h-.54a.09.09 0 0 0-.09.1v7.52c0 .05.05.1.1.1h3.83a.1.1 0 0 0 .1-.1v-.46c0-.05-.05-.09-.1-.09h-3.12c-.05 0-.09-.04-.09-.1v-6.85m19.81 7.5c0 .06-.04.1-.09.1h-.54a.09.09 0 0 1-.09-.1" fill="#000"/><path d="M104.2 24.55v-7.53a.1.1 0 0 1 .1-.1h.54a.1.1 0 0 1 .1.1v7.53m22.94 0c0 .05-.05.09-.1.09h-.53a.1.1 0 0 1-.07-.03l-.02-.03v-.04" fill="#000"/><path d="M127.15 24.55v-7.53c0-.05.04-.1.1-.1h.53c.05 0 .1.05.1.1v7.53m-30.65-2.78v-4.84h-.72v4.84h.72m5.52 0v-4.84h-.72v4.84h.72m-.73 0a2.4 2.4 0 0 1-4.79 0h-.72a3.12 3.12 0 1 0 6.24 0h-.73m18.16 0v-4.84h-.73v4.84h.73m5.51 0v-4.84h-.72v4.84h.72m-.72 0a2.4 2.4 0 0 1-4.8 0h-.72a3.12 3.12 0 1 0 6.24 0h-.72M108.1 24.82c-.62.01-1.32-.2-1.96-.74l.47-.57c1.04.86 2.05.68 2.58.16.27-.26.42-.6.4-.95-.03-.34-.24-.75-.72-1.13h-.02v-.03l-1.78-1.22v-.02h-.02a1.96 1.96 0 0 1-.81-1.53c0-.54.25-1.03.64-1.39.78-.71 2.17-.86 3.31.19l-.49.53c-.9-.84-1.81-.66-2.33-.19-.26.24-.4.55-.4.86 0 .3.14.64.51.95l.03.02 1.78 1.23.02.02a2.3 2.3 0 0 1 1 1.64c.04.58-.2 1.14-.6 1.53-.4.39-.97.64-1.6.64ZM115.94 23.63l2.55-6.7h.76l-2.99 7.7h-.67l-2.98-7.7h.75l2.58 6.7m18.44-6.62a.09.09 0 0 0-.1-.08h-5.68c-.05 0-.09.04-.09.09v.45c0 .07.04.1.1.1h5.68a.1.1 0 0 0 .09-.1v-.46Z" fill="#000"/><path d="M131 24.54c0 .05.06.1.09.1h.54a.1.1 0 0 0 .1-.1v-6.87c0-.05.06-.1.08-.1h-.9c.05 0 .1.05.1.1v6.87m9.35-7.53a.09.09 0 0 0-.1-.08h-5.68c-.05 0-.09.04-.09.09v.45c0 .07.04.1.1.1h5.68a.1.1 0 0 0 .09-.1v-.46" fill="#000"/><path d="M136.99 24.54c0 .05.05.1.08.1h.55a.1.1 0 0 0 .1-.1v-6.87c0-.05.05-.1.07-.1h-.9c.05 0 .1.05.1.1v6.87m12.18-6.4v6.4c0 .06-.04.1-.1.1h-.54a.09.09 0 0 1-.09-.1v-7.51c0-.05.04-.1.09-.1h.64l5.14 6.61v-6.52c0-.05.03-.1.09-.1h.56c.05 0 .06.06.06.1v7.51c0 .05-.05.1-.1.1h-.53c-.03 0-.16-.01-.16-.06l-5.06-6.43M0 13.28h155.02Z" fill="#000"/><path d="M0 13.28h155.02" stroke="#000"/><path d="M11.34 17.55c1.83.13 3.15 1.5 3.15 3.2a3.19 3.19 0 0 1-6.37 0c0-1.7 1.35-3.1 3.2-3.2v-.77c-2.28.11-3.99 1.75-3.97 3.97a3.95 3.95 0 0 0 7.9 0 4.02 4.02 0 0 0-3.95-3.97l.04.77m80.66.07c1.84.14 3.16 1.5 3.16 3.2a3.19 3.19 0 0 1-6.37 0c0-1.7 1.34-3.09 3.2-3.2v-.77c-2.28.12-4 1.75-3.97 3.97a3.95 3.95 0 0 0 7.9 0 4.02 4.02 0 0 0-3.95-3.97l.03.77m51.7-.01c1.83.13 3.16 1.5 3.16 3.2a3.19 3.19 0 1 1-6.38 0c0-1.7 1.35-3.1 3.21-3.2v-.77c-2.29.11-4 1.75-3.97 3.97a3.95 3.95 0 0 0 7.9 0 4.02 4.02 0 0 0-3.96-3.97l.04.77" fill="#000"/></svg>