<svg width="85" height="25" fill="none" xmlns="http://www.w3.org/2000/svg"><path d="m20.85 25 46.71-4.05H16.8L20.85 25ZM75.7 18.37v-8.1c0-1.51 1.07-2.78 2.59-2.78 1.52 0 2.58 1.27 2.58 2.78v8.1h3.14v-8.1c0-3.34-2.28-6.02-5.62-6.02-1.52 0-2.68.86-2.68.86v-.56h-3.14v13.77h3.14v.05ZM65.33 4.2c-3.64 0-6.22 3.19-6.22 7.24 0 4.25 3.24 7.23 6.53 7.23 1.67 0 3.74-.55 5.51-3.08l-2.78-1.62c-2.13 3.14-5.72 1.57-6.12-1.62h9c.81-4.86-2.37-8.15-5.92-8.15Zm2.74 5.47h-5.62c.66-3.2 5.01-3.4 5.62 0Z" fill="#000"/><path d="M58.1 15.08c-.3.2-.66.36-1.07.36-.5 0-1.46-.41-1.46-1.67V7.84h2.68V4.55h-2.68V1.11h-3.14v3.44h-1.67v3.3h1.67v5.92a4.7 4.7 0 0 0 4.66 4.9c.86 0 2.07-.3 3.03-.86l-2.02-2.73ZM46.56 4.55v8.1c0 1.52-1.06 2.79-2.58 2.79s-2.58-1.27-2.58-2.79v-8.1h-3.14v8.1c0 3.34 2.28 6.02 5.62 6.02 1.51 0 2.68-.86 2.68-.86v.51h3.14V4.55h-3.14Z" fill="#000"/><path d="m33.4 4.55-3.8 4.81V0h-3.18v18.37h3.19V12.7l4.65 5.67h4.35l-6.22-7.34 5.36-6.48H33.4ZM21.5 4.55v.61a5.09 5.09 0 0 0-2.93-.96c-3.54 0-6.27 3.24-6.27 7.24s2.68 7.23 6.27 7.23c1.17 0 2.03-.35 2.94-.96v.61h3.14V4.55H21.5Zm-2.98 10.83c-1.77 0-3.03-1.72-3.03-3.9 0-2.17 1.26-3.89 3.03-3.89 1.77 0 2.99 1.72 2.99 3.9.05 2.17-1.22 3.9-2.99 3.9Z" fill="#000"/><path d="M3.29 18.37v-5.36h2.28l4 5.31h4.1L8.8 11.89a5.88 5.88 0 0 0 2.48-4.86 5.93 5.93 0 0 0-5.93-5.92H0v17.21h3.29v.05Zm0-13.97H5.4A2.7 2.7 0 0 1 8.1 7.08 2.7 2.7 0 0 1 5.4 9.78H3.3V4.4Z" fill="#000"/></svg>