<svg width="124" height="15" fill="none" xmlns="http://www.w3.org/2000/svg"><path d="M43.37 7.26c.98 0 1.68-.13 2.2-.48.73-.48 1.05-1.28 1.05-2.3 0-1.09-.38-1.81-.97-2.24-.52-.37-1.25-.53-2.33-.53h-1.27v13H39.9V.29h3.76c1.44 0 2.6.16 3.6.83a3.73 3.73 0 0 1 1.6 3.1 3.74 3.74 0 0 1-3.09 3.87l4.42 6.62h-2.44L42.9 7.26h.46Zm-39.9 0c.97 0 1.67-.13 2.19-.48.73-.48 1.05-1.28 1.05-2.3 0-1.09-.37-1.81-.97-2.24-.51-.37-1.25-.56-2.36-.56H2.14v13H0V.27h3.76c1.44 0 2.6.16 3.6.82a3.73 3.73 0 0 1 1.6 3.1 3.74 3.74 0 0 1-3.08 3.87l4.4 6.65H7.86L2.98 7.26h.49ZM11.89.29h2.16v14.42H11.9V.29Zm9.25 14.42L15.9.29h2.36l4.06 11.4L26.29.29h1.73l-5.17 14.42h-1.7Zm16.93 0h-8.4V.29h7.88v1.42h-5.74v4.78h5.53V7.9H31.8v5.4h6.26v1.4ZM59.18.29h2.17v14.42h-2.17V.29ZM68.52 0c1.17 0 2.41.27 3.52.75v1.92a7.41 7.41 0 0 0-3.7-1.18c-1.36 0-2.39.67-2.39 1.9 0 3.2 6.99 2.64 6.99 7.45C72.94 13.16 71.3 15 68 15a8.8 8.8 0 0 1-4.03-.96v-2.06a6.68 6.68 0 0 0 4.2 1.53c1.59 0 2.84-.73 2.84-2.2 0-3.41-6.99-2.8-6.99-7.57.03-2.62 2.08-3.74 4.5-3.74M83.5 13.3l-.52 1.4h-7.52V.3h2.16v13h5.88Zm13.32 1.4h-2.36l-1.4-3.81h-5.64l-1.38 3.82h-1.73L89.64.29h1.74l5.44 14.42Zm-8.88-5.22h4.6L90.2 3.12l-2.27 6.36Zm19.98 5.23-7.85-10.76v10.76H98.4V.29h1.74l7.55 10.39V.29h1.65v14.42h-1.43Zm13.26-1.6c-1.22 1.09-3 1.62-5.14 1.62h-4.22V.32h4.22c2.14 0 3.92.5 5.14 1.6 1.38 1.26 2.03 3.23 2.03 5.6 0 2.36-.64 4.33-2.03 5.59Zm-2.22-10.52c-.84-.56-1.95-.86-3.62-.86h-1.36v11.5h1.36c1.51 0 2.73-.23 3.62-.85 1.36-.9 2-2.64 2-4.9-.02-2.28-.64-3.96-2-4.9" fill="#000"/></svg>