<svg width="50" height="50" viewBox="0 0 50 50" fill="none" xmlns="http://www.w3.org/2000/svg">
<path d="M37.12 10.8899H12.88C11.781 10.8899 10.89 11.7808 10.89 12.8799V37.1199C10.89 38.2189 11.781 39.1099 12.88 39.1099H37.12C38.2191 39.1099 39.11 38.2189 39.11 37.1199V12.8799C39.11 11.7808 38.2191 10.8899 37.12 10.8899Z" fill="#6F2CFF"/>
<path d="M39.11 25H43.12" stroke="#6F2CFF" stroke-width="2.78" stroke-miterlimit="10" stroke-linecap="round"/>
<path d="M39.11 31.5601H43.12" stroke="#6F2CFF" stroke-width="2.78" stroke-miterlimit="10" stroke-linecap="round"/>
<path d="M39.11 18.4399H43.12" stroke="#6F2CFF" stroke-width="2.78" stroke-miterlimit="10" stroke-linecap="round"/>
<path d="M6.88 25H10.89" stroke="#6F2CFF" stroke-width="2.78" stroke-miterlimit="10" stroke-linecap="round"/>
<path d="M6.88 31.5601H10.89" stroke="#6F2CFF" stroke-width="2.78" stroke-miterlimit="10" stroke-linecap="round"/>
<path d="M6.88 18.4399H10.89" stroke="#6F2CFF" stroke-width="2.78" stroke-miterlimit="10" stroke-linecap="round"/>
<path d="M25 10.8899V6.87988" stroke="#6F2CFF" stroke-width="2.78" stroke-miterlimit="10" stroke-linecap="round"/>
<path d="M31.16 10.8899V6.87988" stroke="#6F2CFF" stroke-width="2.78" stroke-miterlimit="10" stroke-linecap="round"/>
<path d="M18.84 10.8899V6.87988" stroke="#6F2CFF" stroke-width="2.78" stroke-miterlimit="10" stroke-linecap="round"/>
<path d="M25 43.1201V39.1101" stroke="#6F2CFF" stroke-width="2.78" stroke-miterlimit="10" stroke-linecap="round"/>
<path d="M31.16 43.1201V39.1101" stroke="#6F2CFF" stroke-width="2.78" stroke-miterlimit="10" stroke-linecap="round"/>
<path d="M18.84 43.1201V39.1101" stroke="#6F2CFF" stroke-width="2.78" stroke-miterlimit="10" stroke-linecap="round"/>
<path d="M26.88 23.1101H23.11V26.8801H26.88V23.1101Z" fill="#D15187"/>
<path d="M33.04 23.1101H29.27V26.8801H33.04V23.1101Z" fill="#D15187"/>
<path d="M20.72 23.1101H16.95V26.8801H20.72V23.1101Z" fill="#D15187"/>
<path d="M26.88 16.5601H23.11V20.3301H26.88V16.5601Z" fill="#D15187"/>
<path d="M33.04 16.5601H29.27V20.3301H33.04V16.5601Z" fill="#D15187"/>
<path d="M20.72 16.5601H16.95V20.3301H20.72V16.5601Z" fill="#D15187"/>
<path d="M26.88 29.6699H23.11V33.4399H26.88V29.6699Z" fill="#D15187"/>
<path d="M33.04 29.6699H29.27V33.4399H33.04V29.6699Z" fill="#D15187"/>
<path d="M20.72 29.6699H16.95V33.4399H20.72V29.6699Z" fill="#D15187"/>
</svg>
