<svg width="50" height="50" viewBox="0 0 50 50" fill="none" xmlns="http://www.w3.org/2000/svg">
<path d="M30.46 13.6699H11.71C11.4869 13.666 11.2652 13.7065 11.0579 13.7891C10.8506 13.8718 10.6618 13.9949 10.5026 14.1513C10.3434 14.3077 10.217 14.4942 10.1307 14.7C10.0444 14.9058 9.99996 15.1268 10 15.3499V39.0799C9.99999 39.5238 10.1756 39.9496 10.4885 40.2644C10.8014 40.5791 11.2262 40.7573 11.67 40.7599H35.44C35.8856 40.7599 36.3129 40.5829 36.6279 40.2679C36.943 39.9528 37.12 39.5255 37.12 39.0799V20.3299C35.3537 20.3299 33.6597 19.6283 32.4107 18.3793C31.1617 17.1303 30.46 15.4363 30.46 13.6699Z" fill="#6F2CFF"/>
<path d="M37.12 7.00001C35.3537 7.00001 33.6597 7.70168 32.4107 8.95068C31.1617 10.1997 30.46 11.8937 30.46 13.66H35.46C35.9056 13.66 36.3329 13.837 36.648 14.1521C36.963 14.4671 37.14 14.8944 37.14 15.34V20.34C38.909 20.3374 40.6045 19.6321 41.8535 18.3793C43.1025 17.1266 43.8027 15.429 43.8 13.66C43.7974 11.891 43.0921 10.1955 41.8394 8.94653C40.5866 7.69754 38.889 6.99736 37.12 7.00001Z" fill="#D15187"/>
<path d="M35.44 13.6699H30.44C30.44 15.4363 31.1417 17.1303 32.3907 18.3793C33.6397 19.6282 35.3337 20.3299 37.1 20.3299V15.3299C37.0948 14.8913 36.9183 14.4721 36.6081 14.1619C36.2979 13.8517 35.8786 13.6751 35.44 13.6699Z" fill="#A445BB"/>
</svg>
