<svg width="50" height="50" viewBox="0 0 50 50" fill="none" xmlns="http://www.w3.org/2000/svg">
<path d="M26.23 13.8299L41.37 21.8299L43 20.9999C43.4225 20.7748 43.7758 20.4391 44.0222 20.0287C44.2686 19.6183 44.3987 19.1486 44.3987 18.6699C44.3987 18.1912 44.2686 17.7215 44.0222 17.3111C43.7758 16.9007 43.4225 16.565 43 16.3399L26.23 7.50991C25.85 7.31267 25.4281 7.20972 25 7.20972C24.5719 7.20972 24.15 7.31267 23.77 7.50991L7.05 16.3499C6.62751 16.575 6.27417 16.9107 6.02779 17.3211C5.7814 17.7315 5.65125 18.2012 5.65125 18.6799C5.65125 19.1586 5.7814 19.6283 6.02779 20.0387C6.27417 20.4491 6.62751 20.7848 7.05 21.0099L8.63 21.8399L23.77 13.8399C24.1492 13.6411 24.5706 13.5365 24.9988 13.5347C25.4269 13.533 25.8492 13.6342 26.23 13.8299Z" fill="#6F2CFF"/>
<path d="M23.77 36.1699L8.63 28.1699L7.05 28.9999C6.62751 29.225 6.27417 29.5607 6.02779 29.9711C5.7814 30.3815 5.65125 30.8512 5.65125 31.3299C5.65125 31.8086 5.7814 32.2783 6.02779 32.6887C6.27417 33.0991 6.62751 33.4349 7.05 33.6599L23.77 42.4999C24.15 42.6972 24.5719 42.8001 25 42.8001C25.4281 42.8001 25.85 42.6972 26.23 42.4999L43 33.6499C43.42 33.424 43.771 33.0886 44.0156 32.6792C44.2602 32.2698 44.3894 31.8018 44.3894 31.3249C44.3894 30.848 44.2602 30.38 44.0156 29.9707C43.771 29.5613 43.42 29.2258 43 28.9999L41.42 28.1699L26.28 36.1699C25.8937 36.3757 25.4627 36.4833 25.025 36.4833C24.5873 36.4833 24.1563 36.3757 23.77 36.1699Z" fill="#6F2CFF"/>
<path d="M43 22.6701L41.42 21.8401L35.42 25.0001L26.26 29.8401C25.8815 30.0423 25.4591 30.1481 25.03 30.1481C24.6009 30.1481 24.1784 30.0423 23.8 29.8401L14.61 25.0001L8.60998 21.8401L7.02998 22.6701C6.60749 22.8952 6.25415 23.2309 6.00777 23.6413C5.76138 24.0517 5.63123 24.5214 5.63123 25.0001C5.63123 25.4788 5.76138 25.9485 6.00777 26.3589C6.25415 26.7693 6.60749 27.105 7.02998 27.3301L8.60998 28.1601L23.75 36.1601C24.13 36.3573 24.5518 36.4603 24.98 36.4603C25.4081 36.4603 25.83 36.3573 26.21 36.1601L41.35 28.1601L43 27.3301C43.4225 27.105 43.7758 26.7693 44.0222 26.3589C44.2686 25.9485 44.3987 25.4788 44.3987 25.0001C44.3987 24.5214 44.2686 24.0517 44.0222 23.6413C43.7758 23.2309 43.4225 22.8952 43 22.6701Z" fill="#D15187"/>
<path d="M26.23 13.83C25.85 13.6327 25.4281 13.5298 25 13.5298C24.5719 13.5298 24.15 13.6327 23.77 13.83L8.63 21.83L14.63 24.99L23.79 29.83C24.1685 30.0322 24.5909 30.138 25.02 30.138C25.4491 30.138 25.8716 30.0322 26.25 29.83L35.39 25L41.39 21.84L26.23 13.83Z" fill="#A445BB"/>
</svg>
