<svg width="50" height="50" viewBox="0 0 50 50" fill="none" xmlns="http://www.w3.org/2000/svg">
<path d="M32.4 24.14L36.16 20.37L26.08 10.29C25.9387 10.1473 25.7705 10.034 25.5851 9.95672C25.3997 9.87941 25.2008 9.8396 25 9.8396C24.7991 9.8396 24.6003 9.87941 24.4149 9.95672C24.2295 10.034 24.0613 10.1473 23.92 10.29L13.84 20.37L17.6 24.14C17.7137 24.2525 17.8039 24.3865 17.8655 24.5341C17.9271 24.6817 17.9588 24.8401 17.9588 25C17.9588 25.16 17.9271 25.3183 17.8655 25.4659C17.8039 25.6136 17.7137 25.7475 17.6 25.86L13.84 29.63L23.92 39.71C24.0613 39.8527 24.2295 39.966 24.4149 40.0433C24.6003 40.1206 24.7991 40.1604 25 40.1604C25.2008 40.1604 25.3997 40.1206 25.5851 40.0433C25.7705 39.966 25.9387 39.8527 26.08 39.71L36.16 29.63L32.4 25.86C32.2863 25.7475 32.1961 25.6136 32.1345 25.4659C32.0729 25.3183 32.0412 25.16 32.0412 25C32.0412 24.8401 32.0729 24.6817 32.1345 24.5341C32.1961 24.3865 32.2863 24.2525 32.4 24.14Z" fill="#6F00FF"/>
<path d="M47.82 24.14L41 17.29C40.8875 17.1763 40.7535 17.086 40.6059 17.0245C40.4583 16.9629 40.3 16.9312 40.14 16.9312C39.9801 16.9312 39.8217 16.9629 39.6741 17.0245C39.5265 17.086 39.3925 17.1763 39.28 17.29L36.19 20.37L39.74 23.92C39.8827 24.0613 39.996 24.2295 40.0733 24.4149C40.1506 24.6003 40.1904 24.7991 40.1904 25C40.1904 25.2008 40.1506 25.3997 40.0733 25.5851C39.996 25.7704 39.8827 25.9386 39.74 26.08L36.19 29.63L39.28 32.71C39.3925 32.8237 39.5265 32.9139 39.6741 32.9755C39.8217 33.0371 39.9801 33.0688 40.14 33.0688C40.3 33.0688 40.4583 33.0371 40.6059 32.9755C40.7535 32.9139 40.8875 32.8237 41 32.71L47.85 25.86C48.0708 25.6262 48.1913 25.3153 48.1857 24.9939C48.1801 24.6724 48.0488 24.3659 47.82 24.14Z" fill="#D15187"/>
<path d="M39.71 23.9201L36.16 20.3701L32.4 24.1401C32.2863 24.2526 32.1961 24.3866 32.1345 24.5342C32.0729 24.6818 32.0412 24.8402 32.0412 25.0001C32.0412 25.1601 32.0729 25.3184 32.1345 25.466C32.1961 25.6137 32.2863 25.7476 32.4 25.8601L36.16 29.6301L39.71 26.0801C39.8527 25.9388 39.966 25.7706 40.0433 25.5852C40.1206 25.3998 40.1604 25.201 40.1604 25.0001C40.1604 24.7993 40.1206 24.6004 40.0433 24.415C39.966 24.2297 39.8527 24.0614 39.71 23.9201Z" fill="#A445BB"/>
<path d="M10.29 23.92L13.84 20.37L10.75 17.29C10.6375 17.1763 10.5035 17.086 10.3559 17.0245C10.2083 16.9629 10.05 16.9312 9.89 16.9312C9.73005 16.9312 9.57169 16.9629 9.42407 17.0245C9.27646 17.086 9.14252 17.1763 9.03 17.29L2.18 24.14C1.95523 24.3698 1.82938 24.6785 1.82938 25C1.82938 25.3214 1.95523 25.6301 2.18 25.86L9 32.71C9.11252 32.8237 9.24646 32.9139 9.39407 32.9755C9.54169 33.0371 9.70005 33.0688 9.86 33.0688C10.0199 33.0688 10.1783 33.0371 10.3259 32.9755C10.4735 32.9139 10.6075 32.8237 10.72 32.71L13.81 29.63L10.26 26.08C10.1192 25.9367 10.0083 25.7669 9.93353 25.5804C9.85878 25.394 9.82173 25.1946 9.82452 24.9937C9.82731 24.7929 9.86988 24.5946 9.94978 24.4103C10.0297 24.226 10.1453 24.0593 10.29 23.92Z" fill="#D15187"/>
<path d="M17.6 24.1401L13.84 20.3701L10.29 23.9201C10.1473 24.0614 10.034 24.2297 9.95669 24.415C9.87937 24.6004 9.83957 24.7993 9.83957 25.0001C9.83957 25.201 9.87937 25.3998 9.95669 25.5852C10.034 25.7706 10.1473 25.9388 10.29 26.0801L13.84 29.6301L17.6 25.8601C17.7137 25.7476 17.8039 25.6137 17.8655 25.466C17.9271 25.3184 17.9588 25.1601 17.9588 25.0001C17.9588 24.8402 17.9271 24.6818 17.8655 24.5342C17.8039 24.3866 17.7137 24.2526 17.6 24.1401Z" fill="#A445BB"/>
</svg>
